<svg width="27" height="23" viewBox="0 0 27 23" fill="none" xmlns="http://www.w3.org/2000/svg">
<path d="M13.5 1.4375C15.364 1.4375 16.875 2.72468 16.875 4.3125V10.0625H10.125V4.3125C10.125 2.72468 11.636 1.4375 13.5 1.4375ZM18.5625 10.0625V4.3125C18.5625 1.93077 16.2959 0 13.5 0C10.7041 0 8.4375 1.93077 8.4375 4.3125V10.0625C6.57354 10.0625 5.0625 11.3497 5.0625 12.9375V20.125C5.0625 21.7128 6.57354 23 8.4375 23H18.5625C20.4265 23 21.9375 21.7128 21.9375 20.125V12.9375C21.9375 11.3497 20.4265 10.0625 18.5625 10.0625Z" fill="black"/>
</svg>
