<svg width="24" height="29" viewBox="0 0 24 29" fill="none" xmlns="http://www.w3.org/2000/svg">
<path d="M1.5 0L0 1.8125L3.30133 7.39724C3.58289 7.87356 4.0375 8.15625 4.52193 8.15625H4.62868C5.0265 8.15625 5.40804 8.34721 5.68934 8.68712L9.70184 13.5356L5.77648 18.3469C5.37181 18.2025 4.94339 18.125 4.5 18.125C2.01472 18.125 0 20.5595 0 23.5625C0 26.5655 2.01472 29 4.5 29C6.98528 29 9 26.5655 9 23.5625C9 23.0267 8.93587 22.5091 8.81639 22.0201L12.7982 17.277L14.25 19.0312L13.7932 20.6873C13.6135 21.3386 13.7538 22.0566 14.1555 22.5421L19.0607 28.4691C19.3536 28.823 19.7374 29 20.1213 29C20.5052 29 20.8891 28.823 21.182 28.4691L23.5607 25.5949C23.8536 25.241 24 24.7771 24 24.3133C24 23.8494 23.8536 23.3855 23.5607 23.0316L18.6555 17.1046C18.2538 16.6191 17.6595 16.4496 17.1205 16.6667L15.75 17.2188L14.3089 15.4774L18.3287 10.689C18.7022 10.8103 19.0948 10.875 19.5 10.875C21.9853 10.875 24 8.44055 24 5.4375C24 4.95041 23.947 4.47828 23.8476 4.02907L20.636 7.90968L18 7.24997L17.4541 4.06479L20.6656 0.184177C20.2938 0.0640463 19.9031 0 19.5 0C17.0147 0 15 2.43445 15 5.4375C15 5.9271 15.0536 6.40159 15.154 6.85287L11.1911 11.7101L7.18934 6.87462C6.90804 6.53471 6.75 6.07369 6.75 5.59299V5.46399C6.75 4.87865 6.51605 4.32933 6.12186 3.9891L1.5 0ZM15.9697 19.2967C16.2626 18.9428 16.7374 18.9428 17.0303 19.2967L21.4017 24.5787C21.6945 24.9326 21.6945 25.5064 21.4017 25.8603C21.1088 26.2142 20.6339 26.2142 20.341 25.8603L15.9697 20.5783C15.6768 20.2244 15.6768 19.6506 15.9697 19.2967ZM4.5 19.9375L5.20658 20.3761L6 20.4231L6.4304 21.2299L7.09808 21.75L7.13698 22.7087L7.5 23.5625L7.13698 24.4162L7.09808 25.375L6.4304 25.895L6 26.7018L5.20658 26.7488L4.5 27.1875L3.79342 26.7488L3 26.7018L2.5696 25.895L1.90192 25.375L1.86302 24.4162L1.5 23.5625L1.86302 22.7087L1.90192 21.75L2.5696 21.2299L3 20.4231L3.79342 20.3761L4.5 19.9375Z" fill="black"/>
</svg>
