<svg width="120" height="41" viewBox="0 0 120 41" fill="none" xmlns="http://www.w3.org/2000/svg">
<rect opacity="0.7" width="120" height="41" rx="20" fill="#D9D9D9"/>
<rect x="1" width="63" height="41" rx="20" fill="white"/>
<path d="M87.1257 7.53921C87.5242 7.96959 87.6603 8.61822 87.3015 9.20125C86.0752 11.1942 85.3783 13.4771 85.3783 15.9064C85.3783 23.696 92.5507 30.0034 101.388 30.0034C102.539 30.0034 103.661 29.8965 104.742 29.6937C105.481 29.5551 106.153 29.8509 106.513 30.3054C106.885 30.7744 106.963 31.4741 106.445 32.0372C103.101 35.6721 97.9855 38 92.2516 38C82.1669 38 74 30.8048 74 21.9382C74 15.265 78.6247 9.54194 85.2077 7.11642C85.9683 6.83618 86.7144 7.09512 87.1257 7.53921ZM84.6268 9.53937C79.6328 11.9257 76.242 16.5831 76.242 21.9382C76.242 29.7278 83.4144 36.0351 92.2516 36.0351C96.7053 36.0351 100.735 34.4346 103.639 31.8472C102.901 31.9271 102.15 31.9682 101.388 31.9682C91.3032 31.9682 83.1363 24.773 83.1363 15.9064C83.1363 13.6459 83.6676 11.4925 84.6268 9.53937Z" fill="black"/>
<path d="M28.5 25.5625C25.7041 25.5625 23.4375 23.2959 23.4375 20.5C23.4375 17.7041 25.7041 15.4375 28.5 15.4375C31.2959 15.4375 33.5625 17.7041 33.5625 20.5C33.5625 23.2959 31.2959 25.5625 28.5 25.5625ZM28.5 27.25C32.2279 27.25 35.25 24.2279 35.25 20.5C35.25 16.7721 32.2279 13.75 28.5 13.75C24.7721 13.75 21.75 16.7721 21.75 20.5C21.75 24.2279 24.7721 27.25 28.5 27.25Z" fill="black"/>
<path d="M28.5 7C28.966 7 29.3438 7.37776 29.3438 7.84375V11.2188C29.3438 11.6847 28.966 12.0625 28.5 12.0625C28.034 12.0625 27.6562 11.6847 27.6562 11.2188V7.84375C27.6562 7.37776 28.034 7 28.5 7Z" fill="black"/>
<path d="M28.5 28.9375C28.966 28.9375 29.3438 29.3153 29.3438 29.7812V33.1562C29.3438 33.6222 28.966 34 28.5 34C28.034 34 27.6562 33.6222 27.6562 33.1562V29.7812C27.6562 29.3153 28.034 28.9375 28.5 28.9375Z" fill="black"/>
<path d="M42 20.5C42 20.966 41.6222 21.3438 41.1562 21.3438H37.7812C37.3153 21.3437 36.9375 20.966 36.9375 20.5C36.9375 20.034 37.3153 19.6563 37.7812 19.6563H41.1562C41.6222 19.6563 42 20.034 42 20.5Z" fill="black"/>
<path d="M20.0625 20.5C20.0625 20.966 19.6847 21.3437 19.2188 21.3437H15.8437C15.3778 21.3437 15 20.966 15 20.5C15 20.034 15.3778 19.6562 15.8438 19.6562H19.2188C19.6847 19.6562 20.0625 20.034 20.0625 20.5Z" fill="black"/>
<path d="M38.0459 10.9541C38.3754 11.2836 38.3754 11.8178 38.0459 12.1474L35.6595 14.5338C35.3299 14.8633 34.7957 14.8633 34.4662 14.5338C34.1367 14.2043 34.1367 13.6701 34.4662 13.3406L36.8527 10.9541C37.1822 10.6246 37.7164 10.6246 38.0459 10.9541Z" fill="black"/>
<path d="M22.5338 26.4663C22.8633 26.7958 22.8633 27.33 22.5338 27.6595L20.1473 30.046C19.8178 30.3755 19.2836 30.3755 18.9541 30.046C18.6246 29.7165 18.6246 29.1823 18.9541 28.8528L21.3405 26.4663C21.67 26.1368 22.2043 26.1368 22.5338 26.4663Z" fill="black"/>
<path d="M38.0459 30.046C37.7164 30.3755 37.1822 30.3755 36.8527 30.046L34.4662 27.6595C34.1367 27.33 34.1367 26.7958 34.4662 26.4663C34.7957 26.1368 35.3299 26.1368 35.6595 26.4663L38.0459 28.8528C38.3754 29.1823 38.3754 29.7165 38.0459 30.046Z" fill="black"/>
<path d="M22.5338 14.5339C22.2043 14.8634 21.67 14.8634 21.3405 14.5339L18.9541 12.1474C18.6246 11.8179 18.6246 11.2836 18.9541 10.9541C19.2836 10.6246 19.8178 10.6246 20.1473 10.9541L22.5338 13.3406C22.8633 13.6701 22.8633 14.2044 22.5338 14.5339Z" fill="black"/>
</svg>
