<svg width="120" height="41" viewBox="0 0 120 41" fill="none" xmlns="http://www.w3.org/2000/svg">
<rect opacity="0.7" width="120" height="41" rx="20" fill="#D9D9D9"/>
<path d="M56 20C56 8.95431 64.9543 0 76 0H99C110.046 0 119 8.95431 119 20V21C119 32.0457 110.046 41 99 41H76C64.9543 41 56 32.0457 56 21V20Z" fill="white"/>
<path d="M83.1257 5.53921C83.5242 5.96959 83.6603 6.61822 83.3015 7.20125C82.0752 9.19419 81.3783 11.4771 81.3783 13.9064C81.3783 21.696 88.5507 28.0034 97.3879 28.0034C98.5393 28.0034 99.6612 27.8965 100.742 27.6937C101.481 27.5551 102.153 27.8509 102.513 28.3054C102.885 28.7744 102.963 29.4741 102.445 30.0372C99.1011 33.6721 93.9855 36 88.2516 36C78.1669 36 70 28.8048 70 19.9382C70 13.265 74.6247 7.54194 81.2077 5.11642C81.9683 4.83618 82.7144 5.09512 83.1257 5.53921ZM80.6268 7.53937C75.6328 9.92568 72.242 14.5831 72.242 19.9382C72.242 27.7278 79.4144 34.0351 88.2516 34.0351C92.7053 34.0351 96.7347 32.4346 99.6387 29.8472C98.9008 29.9271 98.1496 29.9682 97.3879 29.9682C87.3032 29.9682 79.1363 22.773 79.1363 13.9064C79.1363 11.6459 79.6676 9.49254 80.6268 7.53937Z" fill="black"/>
<path d="M27.5 23.5625C24.7041 23.5625 22.4375 21.2959 22.4375 18.5C22.4375 15.7041 24.7041 13.4375 27.5 13.4375C30.2959 13.4375 32.5625 15.7041 32.5625 18.5C32.5625 21.2959 30.2959 23.5625 27.5 23.5625ZM27.5 25.25C31.2279 25.25 34.25 22.2279 34.25 18.5C34.25 14.7721 31.2279 11.75 27.5 11.75C23.7721 11.75 20.75 14.7721 20.75 18.5C20.75 22.2279 23.7721 25.25 27.5 25.25Z" fill="black"/>
<path d="M27.5 5C27.966 5 28.3438 5.37776 28.3438 5.84375V9.21875C28.3438 9.68474 27.966 10.0625 27.5 10.0625C27.034 10.0625 26.6562 9.68474 26.6562 9.21875V5.84375C26.6562 5.37776 27.034 5 27.5 5Z" fill="black"/>
<path d="M27.5 26.9375C27.966 26.9375 28.3438 27.3153 28.3438 27.7812V31.1562C28.3438 31.6222 27.966 32 27.5 32C27.034 32 26.6562 31.6222 26.6562 31.1562V27.7812C26.6562 27.3153 27.034 26.9375 27.5 26.9375Z" fill="black"/>
<path d="M41 18.5C41 18.966 40.6222 19.3438 40.1562 19.3438H36.7812C36.3153 19.3437 35.9375 18.966 35.9375 18.5C35.9375 18.034 36.3153 17.6563 36.7812 17.6563H40.1562C40.6222 17.6563 41 18.034 41 18.5Z" fill="black"/>
<path d="M19.0625 18.5C19.0625 18.966 18.6847 19.3437 18.2188 19.3437H14.8437C14.3778 19.3437 14 18.966 14 18.5C14 18.034 14.3778 17.6562 14.8438 17.6562H18.2188C18.6847 17.6562 19.0625 18.034 19.0625 18.5Z" fill="black"/>
<path d="M37.0459 8.95411C37.3754 9.28362 37.3754 9.81785 37.0459 10.1474L34.6595 12.5338C34.3299 12.8633 33.7957 12.8633 33.4662 12.5338C33.1367 12.2043 33.1367 11.6701 33.4662 11.3406L35.8527 8.95411C36.1822 8.62461 36.7164 8.62461 37.0459 8.95411Z" fill="black"/>
<path d="M21.5338 24.4663C21.8633 24.7958 21.8633 25.33 21.5338 25.6595L19.1473 28.046C18.8178 28.3755 18.2836 28.3755 17.9541 28.046C17.6246 27.7165 17.6246 27.1823 17.9541 26.8528L20.3405 24.4663C20.67 24.1368 21.2043 24.1368 21.5338 24.4663Z" fill="black"/>
<path d="M37.0459 28.046C36.7164 28.3755 36.1822 28.3755 35.8527 28.046L33.4662 25.6595C33.1367 25.33 33.1367 24.7958 33.4662 24.4663C33.7957 24.1368 34.3299 24.1368 34.6595 24.4663L37.0459 26.8528C37.3754 27.1823 37.3754 27.7165 37.0459 28.046Z" fill="black"/>
<path d="M21.5338 12.5339C21.2043 12.8634 20.67 12.8634 20.3405 12.5339L17.9541 10.1474C17.6246 9.81787 17.6246 9.28364 17.9541 8.95413C18.2836 8.62463 18.8178 8.62463 19.1473 8.95413L21.5338 11.3406C21.8633 11.6701 21.8633 12.2044 21.5338 12.5339Z" fill="black"/>
</svg>
