<svg width="50" height="50" viewBox="0 0 50 50" fill="none" xmlns="http://www.w3.org/2000/svg">
<circle cx="25" cy="25" r="25" fill="#6B83C5" fill-opacity="0.6"/>
<path d="M20.8755 8.53921C21.2058 8.96959 21.3185 9.61822 21.0213 10.2012C20.0052 12.1942 19.4277 14.4771 19.4277 16.9064C19.4277 24.696 25.3705 31.0034 32.6928 31.0034C33.6469 31.0034 34.5764 30.8965 35.4718 30.6937C36.0841 30.5551 36.6409 30.8509 36.9394 31.3054C37.2474 31.7744 37.3119 32.4741 36.8827 33.0372C34.1123 36.6721 29.8737 39 25.1227 39C16.7668 39 10 31.8048 10 22.9382C10 16.265 13.8319 10.5419 19.2864 8.11642C19.9166 7.83618 20.5348 8.09512 20.8755 8.53921ZM18.8051 10.5394C14.6672 12.9257 11.8577 17.5831 11.8577 22.9382C11.8577 30.7278 17.8005 37.0351 25.1227 37.0351C28.8129 37.0351 32.1516 35.4346 34.5578 32.8472C33.9463 32.9271 33.3239 32.9682 32.6928 32.9682C24.3369 32.9682 17.5701 25.773 17.5701 16.9064C17.5701 14.6459 18.0103 12.4925 18.8051 10.5394Z" fill="white"/>
</svg>
