<svg width="357" height="177" viewBox="0 0 357 177" fill="none" xmlns="http://www.w3.org/2000/svg">
<path d="M245.026 77.7378C239.619 52.339 215.461 33.1875 186.469 33.1875C161.878 33.1875 140.773 46.9654 131.629 66.6334C130.037 66.4626 128.419 66.375 126.781 66.375C103.706 66.375 85 83.71 85 105.094C85 126.478 103.706 143.812 126.781 143.812H240.188C259.966 143.812 276 128.954 276 110.625C276 93.8167 262.516 79.9269 245.026 77.7378Z" fill="white"/>
<path d="M142.432 78.9067C137.619 55.0863 116.117 37.125 90.3125 37.125C68.4253 37.125 49.6407 50.0466 41.5019 68.4923C40.0851 68.3322 38.6453 68.25 37.1875 68.25C16.6494 68.25 0 84.5077 0 104.562C0 124.617 16.6494 140.875 37.1875 140.875H138.125C155.729 140.875 170 126.94 170 109.75C170 93.9863 157.999 80.9597 142.432 78.9067Z" fill="white" fill-opacity="0.7"/>
<path d="M329.432 78.9067C324.619 55.0863 303.117 37.125 277.312 37.125C255.425 37.125 236.641 50.0466 228.502 68.4923C227.085 68.3322 225.645 68.25 224.188 68.25C203.649 68.25 187 84.5077 187 104.562C187 124.617 203.649 140.875 224.188 140.875H325.125C342.729 140.875 357 126.94 357 109.75C357 93.9863 344.999 80.9597 329.432 78.9067Z" fill="white" fill-opacity="0.7"/>
</svg>
