<svg width="357" height="201" viewBox="0 0 357 201" fill="none" xmlns="http://www.w3.org/2000/svg">
<path d="M329.432 95.9067C324.619 72.0863 303.117 54.125 277.312 54.125C255.425 54.125 236.641 67.0466 228.502 85.4923C227.085 85.3322 225.645 85.25 224.188 85.25C203.649 85.25 187 101.508 187 121.562C187 141.617 203.649 157.875 224.188 157.875H325.125C342.729 157.875 357 143.94 357 126.75C357 110.986 344.999 97.9597 329.432 95.9067Z" fill="url(#paint0_linear_12_15)"/>
<path d="M142.432 95.9067C137.619 72.0863 116.117 54.125 90.3125 54.125C68.4253 54.125 49.6407 67.0466 41.5019 85.4923C40.0851 85.3322 38.6453 85.25 37.1875 85.25C16.6494 85.25 0 101.508 0 121.562C0 141.617 16.6494 157.875 37.1875 157.875H138.125C155.729 157.875 170 143.94 170 126.75C170 110.986 157.999 97.9597 142.432 95.9067Z" fill="url(#paint1_linear_12_15)"/>
<path d="M259.539 88.2786C253 59.4358 223.783 37.6875 188.719 37.6875C158.978 37.6875 133.453 53.3336 122.394 75.6684C120.469 75.4745 118.512 75.375 116.531 75.375C88.6236 75.375 66 95.0605 66 119.344C66 143.627 88.6236 163.312 116.531 163.312L253.688 163.312C277.608 163.312 297 146.439 297 125.625C297 106.538 280.693 90.7645 259.539 88.2786Z" fill="url(#paint2_linear_12_15)"/>
<defs>
<linearGradient id="paint0_linear_12_15" x1="272" y1="157.875" x2="272" y2="54.125" gradientUnits="userSpaceOnUse">
<stop stop-color="#7585BC"/>
<stop offset="1" stop-color="#393939"/>
</linearGradient>
<linearGradient id="paint1_linear_12_15" x1="85" y1="157.875" x2="85" y2="54.125" gradientUnits="userSpaceOnUse">
<stop stop-color="#7585BC"/>
<stop offset="1" stop-color="#393939"/>
</linearGradient>
<linearGradient id="paint2_linear_12_15" x1="181.5" y1="163.312" x2="181.5" y2="37.6875" gradientUnits="userSpaceOnUse">
<stop offset="0.298077" stop-color="#52579E"/>
<stop offset="0.581731" stop-color="#8788C5"/>
<stop offset="1" stop-color="#1A1919"/>
</linearGradient>
</defs>
</svg>
