<svg width="50" height="50" viewBox="0 0 50 50" fill="none" xmlns="http://www.w3.org/2000/svg">
<circle cx="25" cy="25" r="25" fill="#E6EF6E" fill-opacity="0.6"/>
<path d="M26 33.5C30.4183 33.5 34 30.1421 34 26C34 21.8579 30.4183 18.5 26 18.5C21.5817 18.5 18 21.8579 18 26C18 30.1421 21.5817 33.5 26 33.5Z" fill="black"/>
<path d="M26 11C26.5523 11 27 11.4197 27 11.9375V15.6875C27 16.2053 26.5523 16.625 26 16.625C25.4477 16.625 25 16.2053 25 15.6875V11.9375C25 11.4197 25.4477 11 26 11Z" fill="black"/>
<path d="M26 35.375C26.5523 35.375 27 35.7947 27 36.3125V40.0625C27 40.5803 26.5523 41 26 41C25.4477 41 25 40.5803 25 40.0625V36.3125C25 35.7947 25.4477 35.375 26 35.375Z" fill="black"/>
<path d="M42 26C42 26.5178 41.5523 26.9375 41 26.9375H37C36.4477 26.9375 36 26.5178 36 26C36 25.4822 36.4477 25.0625 37 25.0625H41C41.5523 25.0625 42 25.4822 42 26Z" fill="black"/>
<path d="M16 26C16 26.5178 15.5523 26.9375 15 26.9375H11C10.4477 26.9375 10 26.5178 10 26C10 25.4822 10.4477 25.0625 11 25.0625H15C15.5523 25.0625 16 25.4822 16 26Z" fill="black"/>
<path d="M37.3137 15.3935C37.7042 15.7596 37.7042 16.3532 37.3137 16.7193L34.4853 19.3709C34.0948 19.737 33.4616 19.737 33.0711 19.3709C32.6805 19.0048 32.6805 18.4112 33.0711 18.0451L35.8995 15.3935C36.29 15.0273 36.9232 15.0273 37.3137 15.3935Z" fill="black"/>
<path d="M18.9289 32.6292C19.3195 32.9953 19.3195 33.5889 18.9289 33.955L16.1005 36.6067C15.71 36.9728 15.0768 36.9728 14.6863 36.6067C14.2958 36.2405 14.2958 35.647 14.6863 35.2808L17.5147 32.6292C17.9052 32.2631 18.5384 32.2631 18.9289 32.6292Z" fill="black"/>
<path d="M37.3137 36.6067C36.9232 36.9728 36.29 36.9728 35.8995 36.6067L33.0711 33.955C32.6805 33.5889 32.6805 32.9953 33.0711 32.6292C33.4616 32.2631 34.0948 32.2631 34.4853 32.6292L37.3137 35.2809C37.7042 35.647 37.7042 36.2406 37.3137 36.6067Z" fill="black"/>
<path d="M18.9289 19.371C18.5384 19.7371 17.9052 19.7371 17.5147 19.371L14.6863 16.7193C14.2958 16.3532 14.2958 15.7596 14.6863 15.3935C15.0768 15.0274 15.71 15.0274 16.1005 15.3935L18.9289 18.0451C19.3195 18.4112 19.3195 19.0048 18.9289 19.371Z" fill="black"/>
</svg>
