<svg width="60" height="60" viewBox="0 0 60 60" fill="none" xmlns="http://www.w3.org/2000/svg">
<path d="M49.1475 27.0825C49.1475 15.9563 40.7137 8.21252 28.59 8.21252C16.0275 8.21252 7.41748 16.905 7.41748 29.595C7.41748 42.6938 15.7987 51 29.025 51C32.2575 51 35.3587 50.5388 37.665 49.7438V46.5113C36.0525 47.2575 32.5875 47.7413 29.0775 47.7413C18.105 47.7413 11.0287 40.6913 11.0287 29.7488C11.0287 19.0838 18.2325 11.445 28.2562 11.445C38.5125 11.445 45.5362 17.775 45.5362 27.03C45.5362 33.3375 43.4587 37.4138 40.2262 37.4138C38.3812 37.4138 37.3312 36.3638 37.3312 34.5638V19.5225H33.4612V22.65H33.0487C32.0512 20.4188 29.745 19.035 27.0487 19.035C21.7987 19.035 18.1312 23.3925 18.1312 29.6213C18.1312 36.135 21.72 40.5188 27.0525 40.5188C30.0525 40.5188 32.3587 39.0563 33.4612 36.4425H33.8737C34.1775 38.955 36.51 40.7475 39.51 40.7475C45.405 40.7475 49.1475 35.4375 49.1475 27.0825ZM22.2337 29.7225C22.2337 25.2338 24.2587 22.5713 27.6937 22.5713C31.1812 22.5713 33.4087 25.3388 33.4087 29.7225C33.4087 34.1063 31.155 36.9 27.6412 36.9C24.285 36.9 22.2337 34.1813 22.2337 29.7225Z" fill="black"/>
</svg>
