<svg width="60" height="46" viewBox="0 0 60 46" fill="none" xmlns="http://www.w3.org/2000/svg">
<path d="M50.625 4.25C51.1223 4.25 51.5992 4.44754 51.9508 4.79918C52.3025 5.15081 52.5 5.62772 52.5 6.125V34.25H7.5V6.125C7.5 5.62772 7.69754 5.15081 8.04918 4.79918C8.40081 4.44754 8.87772 4.25 9.375 4.25H50.625ZM9.375 0.5C7.88316 0.5 6.45242 1.09263 5.39752 2.14752C4.34263 3.20242 3.75 4.63316 3.75 6.125V38H56.25V6.125C56.25 4.63316 55.6574 3.20242 54.6025 2.14752C53.5476 1.09263 52.1168 0.5 50.625 0.5H9.375ZM0 39.875H60C60 41.3668 59.4074 42.7976 58.3525 43.8525C57.2976 44.9074 55.8668 45.5 54.375 45.5H5.625C4.13316 45.5 2.70242 44.9074 1.64752 43.8525C0.592632 42.7976 0 41.3668 0 39.875Z" fill="black"/>
</svg>
