<svg width="50" height="50" viewBox="0 0 50 50" fill="none" xmlns="http://www.w3.org/2000/svg">
<path fill-rule="evenodd" clip-rule="evenodd" d="M11.3937 46.4187C11.5389 46.5642 11.7113 46.6797 11.9011 46.7585C12.091 46.8372 12.2945 46.8778 12.5 46.8778C12.7055 46.8778 12.909 46.8372 13.0989 46.7585C13.2887 46.6797 13.4611 46.5642 13.6063 46.4187L25 35.0219L36.3937 46.4187C36.6871 46.7121 37.0851 46.877 37.5 46.877C37.9149 46.877 38.3129 46.7121 38.6063 46.4187C38.8996 46.1253 39.0645 45.7274 39.0645 45.3125C39.0645 44.8976 38.8996 44.4996 38.6063 44.2062L26.1063 31.7062C25.9611 31.5607 25.7887 31.4453 25.5989 31.3665C25.409 31.2877 25.2055 31.2472 25 31.2472C24.7945 31.2472 24.591 31.2877 24.4011 31.3665C24.2113 31.4453 24.0389 31.5607 23.8937 31.7062L11.3937 44.2062C11.2482 44.3514 11.1328 44.5238 11.054 44.7136C10.9753 44.9035 10.9347 45.107 10.9347 45.3125C10.9347 45.518 10.9753 45.7215 11.054 45.9113C11.1328 46.1012 11.2482 46.2736 11.3937 46.4187ZM11.3937 3.58124C11.5389 3.43573 11.7113 3.32028 11.9011 3.24151C12.091 3.16274 12.2945 3.12219 12.5 3.12219C12.7055 3.12219 12.909 3.16274 13.0989 3.24151C13.2887 3.32028 13.4611 3.43573 13.6063 3.58124L25 14.9781L36.3937 3.58124C36.6871 3.28784 37.0851 3.12301 37.5 3.12301C37.9149 3.12301 38.3129 3.28784 38.6063 3.58124C38.8996 3.87463 39.0645 4.27256 39.0645 4.68749C39.0645 5.10241 38.8996 5.50034 38.6063 5.79374L26.1063 18.2937C25.9611 18.4392 25.7887 18.5547 25.5989 18.6335C25.409 18.7122 25.2055 18.7528 25 18.7528C24.7945 18.7528 24.591 18.7122 24.4011 18.6335C24.2113 18.5547 24.0389 18.4392 23.8937 18.2937L11.3937 5.79374C11.2482 5.64859 11.1328 5.47617 11.054 5.28634C10.9753 5.09651 10.9347 4.89301 10.9347 4.68749C10.9347 4.48196 10.9753 4.27846 11.054 4.08863C11.1328 3.8988 11.2482 3.72638 11.3937 3.58124ZM3.125 25C3.125 24.5856 3.28962 24.1882 3.58265 23.8951C3.87567 23.6021 4.2731 23.4375 4.6875 23.4375H45.3125C45.7269 23.4375 46.1243 23.6021 46.4174 23.8951C46.7104 24.1882 46.875 24.5856 46.875 25C46.875 25.4144 46.7104 25.8118 46.4174 26.1048C46.1243 26.3979 45.7269 26.5625 45.3125 26.5625H4.6875C4.2731 26.5625 3.87567 26.3979 3.58265 26.1048C3.28962 25.8118 3.125 25.4144 3.125 25Z" fill="black"/>
</svg>
