<svg width="60" height="60" viewBox="0 0 60 60" fill="none" xmlns="http://www.w3.org/2000/svg">
<path d="M22.5001 46.8751C22.5001 46.3778 22.6976 45.9009 23.0492 45.5492C23.4009 45.1976 23.8778 45.0001 24.3751 45.0001H35.6251C36.1223 45.0001 36.5993 45.1976 36.9509 45.5492C37.3025 45.9009 37.5001 46.3778 37.5001 46.8751C37.5001 47.3723 37.3025 47.8492 36.9509 48.2009C36.5993 48.5525 36.1223 48.7501 35.6251 48.7501H24.3751C23.8778 48.7501 23.4009 48.5525 23.0492 48.2009C22.6976 47.8492 22.5001 47.3723 22.5001 46.8751ZM11.2501 30.2326C11.2501 25.3501 15.8813 21.6188 20.7376 22.0726C26.8992 22.6472 33.1009 22.6472 39.2626 22.0726C44.1188 21.6188 48.7501 25.3501 48.7501 30.2326V34.5713C48.7677 35.4016 48.4884 36.2109 47.9625 36.8537C47.4366 37.4964 46.6986 37.9304 45.8813 38.0776C42.7126 38.6288 37.1063 39.3751 30.0001 39.3751C22.8938 39.3751 17.2876 38.6251 14.1188 38.0776C13.3015 37.9304 12.5635 37.4964 12.0376 36.8537C11.5117 36.2109 11.2324 35.4016 11.2501 34.5713V30.2326ZM28.2826 27.1313C28.1364 27.1064 27.9865 27.1166 27.845 27.1609C27.7035 27.2052 27.5746 27.2825 27.4688 27.3863L24.0188 30.7613C21.6723 30.6206 19.3319 30.3917 17.0026 30.0751C16.7612 30.0511 16.5199 30.1216 16.3294 30.2717C16.1389 30.4219 16.0141 30.6401 15.9811 30.8804C15.9481 31.1207 16.0095 31.3644 16.1524 31.5604C16.2953 31.7564 16.5087 31.8893 16.7476 31.9313C18.8101 32.2163 21.3676 32.4901 24.3226 32.6551C24.4527 32.6624 24.583 32.6425 24.705 32.5967C24.827 32.5508 24.9382 32.48 25.0313 32.3888L27.8588 29.6288L31.0351 36.0413C31.102 36.1758 31.2002 36.2923 31.3216 36.3809C31.4429 36.4695 31.5837 36.5277 31.7323 36.5505C31.8808 36.5733 32.0326 36.56 32.1749 36.5119C32.3172 36.4637 32.4459 36.3821 32.5501 36.2738L36.0451 32.6363C38.4557 32.4942 40.86 32.259 43.2526 31.9313C43.4915 31.8893 43.7048 31.7564 43.8477 31.5604C43.9906 31.3644 44.052 31.1207 44.019 30.8804C43.986 30.6401 43.8612 30.4219 43.6707 30.2717C43.4802 30.1216 43.2389 30.0511 42.9976 30.0751C40.9801 30.3526 38.4713 30.6188 35.5726 30.7838C35.3365 30.7969 35.1142 30.8987 34.9501 31.0688L32.1226 34.0126L28.9651 27.6376C28.8992 27.5054 28.8031 27.3906 28.6845 27.3027C28.5659 27.2147 28.4281 27.156 28.2826 27.1313Z" fill="black"/>
<path d="M31.875 6.9976C32.5899 6.58484 33.1486 5.94773 33.4646 5.18506C33.7805 4.4224 33.8359 3.5768 33.6222 2.77943C33.4086 1.98205 32.9378 1.27746 32.2829 0.774925C31.6279 0.27239 30.8255 0 30 0C29.1745 0 28.3721 0.27239 27.7171 0.774925C27.0622 1.27746 26.5914 1.98205 26.3778 2.77943C26.1641 3.5768 26.2195 4.4224 26.5355 5.18506C26.8514 5.94773 27.4101 6.58484 28.125 6.9976V11.2501H20.625C16.1495 11.2501 11.8572 13.028 8.69257 16.1927C5.5279 19.3573 3.75 23.6496 3.75 28.1251V30.0001C2.75544 30.0001 1.80161 30.3952 1.09835 31.0984C0.395088 31.8017 0 32.7555 0 33.7501L0 41.2501C0 42.2447 0.395088 43.1985 1.09835 43.9017C1.80161 44.605 2.75544 45.0001 3.75 45.0001V48.7501C3.75 50.7392 4.54018 52.6469 5.9467 54.0534C7.35322 55.4599 9.26088 56.2501 11.25 56.2501H48.75C50.7391 56.2501 52.6468 55.4599 54.0533 54.0534C55.4598 52.6469 56.25 50.7392 56.25 48.7501V45.0001C57.2446 45.0001 58.1984 44.605 58.9016 43.9017C59.6049 43.1985 60 42.2447 60 41.2501V33.7501C60 32.7555 59.6049 31.8017 58.9016 31.0984C58.1984 30.3952 57.2446 30.0001 56.25 30.0001V28.1251C56.25 23.6496 54.4721 19.3573 51.3074 16.1927C48.1427 13.028 43.8505 11.2501 39.375 11.2501H31.875V6.9976ZM52.5 28.1251V48.7501C52.5 49.7447 52.1049 50.6985 51.4016 51.4017C50.6984 52.105 49.7446 52.5001 48.75 52.5001H11.25C10.2554 52.5001 9.30161 52.105 8.59835 51.4017C7.89509 50.6985 7.5 49.7447 7.5 48.7501V28.1251C7.5 24.6441 8.88281 21.3057 11.3442 18.8443C13.8056 16.3829 17.144 15.0001 20.625 15.0001H39.375C42.856 15.0001 46.1944 16.3829 48.6558 18.8443C51.1172 21.3057 52.5 24.6441 52.5 28.1251Z" fill="black"/>
</svg>
