<svg width="340" height="70" viewBox="0 0 340 70" fill="none" xmlns="http://www.w3.org/2000/svg">
<rect width="340" height="70" rx="10" fill="#C37D46"/>
<path d="M129.536 31.744C130 31.104 130.632 30.584 131.432 30.184C132.248 29.768 133.152 29.56 134.144 29.56C135.312 29.56 136.368 29.84 137.312 30.4C138.256 30.96 139 31.76 139.544 32.8C140.088 33.824 140.36 35 140.36 36.328C140.36 37.656 140.088 38.848 139.544 39.904C139 40.944 138.248 41.76 137.288 42.352C136.344 42.928 135.296 43.216 134.144 43.216C133.12 43.216 132.208 43.016 131.408 42.616C130.624 42.216 130 41.704 129.536 41.08V43H126.8V25.24H129.536V31.744ZM137.576 36.328C137.576 35.416 137.384 34.632 137 33.976C136.632 33.304 136.136 32.8 135.512 32.464C134.904 32.112 134.248 31.936 133.544 31.936C132.856 31.936 132.2 32.112 131.576 32.464C130.968 32.816 130.472 33.328 130.088 34C129.72 34.672 129.536 35.464 129.536 36.376C129.536 37.288 129.72 38.088 130.088 38.776C130.472 39.448 130.968 39.96 131.576 40.312C132.2 40.664 132.856 40.84 133.544 40.84C134.248 40.84 134.904 40.664 135.512 40.312C136.136 39.944 136.632 39.416 137 38.728C137.384 38.04 137.576 37.24 137.576 36.328ZM155.042 29.776V43H152.306V41.44C151.874 41.984 151.306 42.416 150.602 42.736C149.914 43.04 149.178 43.192 148.394 43.192C147.354 43.192 146.418 42.976 145.586 42.544C144.77 42.112 144.122 41.472 143.642 40.624C143.178 39.776 142.946 38.752 142.946 37.552V29.776H145.658V37.144C145.658 38.328 145.954 39.24 146.546 39.88C147.138 40.504 147.946 40.816 148.97 40.816C149.994 40.816 150.802 40.504 151.394 39.88C152.002 39.24 152.306 38.328 152.306 37.144V29.776H155.042ZM161.844 32.008V39.328C161.844 39.824 161.956 40.184 162.18 40.408C162.42 40.616 162.82 40.72 163.38 40.72H165.06V43H162.9C161.668 43 160.724 42.712 160.068 42.136C159.412 41.56 159.084 40.624 159.084 39.328V32.008H157.524V29.776H159.084V26.488H161.844V29.776H165.06V32.008H161.844ZM170.773 32.008V39.328C170.773 39.824 170.885 40.184 171.109 40.408C171.349 40.616 171.749 40.72 172.309 40.72H173.989V43H171.829C170.597 43 169.653 42.712 168.997 42.136C168.341 41.56 168.013 40.624 168.013 39.328V32.008H166.453V29.776H168.013V26.488H170.773V29.776H173.989V32.008H170.773ZM182.247 43.216C180.999 43.216 179.871 42.936 178.863 42.376C177.855 41.8 177.063 41 176.487 39.976C175.911 38.936 175.623 37.736 175.623 36.376C175.623 35.032 175.919 33.84 176.511 32.8C177.103 31.76 177.911 30.96 178.935 30.4C179.959 29.84 181.103 29.56 182.367 29.56C183.631 29.56 184.775 29.84 185.799 30.4C186.823 30.96 187.631 31.76 188.223 32.8C188.815 33.84 189.111 35.032 189.111 36.376C189.111 37.72 188.807 38.912 188.199 39.952C187.591 40.992 186.759 41.8 185.703 42.376C184.663 42.936 183.511 43.216 182.247 43.216ZM182.247 40.84C182.951 40.84 183.607 40.672 184.215 40.336C184.839 40 185.343 39.496 185.727 38.824C186.111 38.152 186.303 37.336 186.303 36.376C186.303 35.416 186.119 34.608 185.751 33.952C185.383 33.28 184.895 32.776 184.287 32.44C183.679 32.104 183.023 31.936 182.319 31.936C181.615 31.936 180.959 32.104 180.351 32.44C179.759 32.776 179.287 33.28 178.935 33.952C178.583 34.608 178.407 35.416 178.407 36.376C178.407 37.8 178.767 38.904 179.487 39.688C180.223 40.456 181.143 40.84 182.247 40.84ZM198.488 29.56C199.528 29.56 200.456 29.776 201.272 30.208C202.104 30.64 202.752 31.28 203.216 32.128C203.68 32.976 203.912 34 203.912 35.2V43H201.2V35.608C201.2 34.424 200.904 33.52 200.312 32.896C199.72 32.256 198.912 31.936 197.888 31.936C196.864 31.936 196.048 32.256 195.44 32.896C194.848 33.52 194.552 34.424 194.552 35.608V43H191.816V29.776H194.552V31.288C195 30.744 195.568 30.32 196.256 30.016C196.96 29.712 197.704 29.56 198.488 29.56Z" fill="#1E1E1E"/>
</svg>
