<svg width="340" height="70" viewBox="0 0 340 70" fill="none" xmlns="http://www.w3.org/2000/svg">
<rect width="340" height="70" rx="10" fill="#C37D46"/>
<path d="M129.536 26.32V43H126.8V26.32H129.536ZM139.8 29.56C140.84 29.56 141.768 29.776 142.584 30.208C143.416 30.64 144.064 31.28 144.528 32.128C144.992 32.976 145.224 34 145.224 35.2V43H142.512V35.608C142.512 34.424 142.216 33.52 141.624 32.896C141.032 32.256 140.224 31.936 139.2 31.936C138.176 31.936 137.36 32.256 136.752 32.896C136.16 33.52 135.864 34.424 135.864 35.608V43H133.128V29.776H135.864V31.288C136.312 30.744 136.88 30.32 137.568 30.016C138.272 29.712 139.016 29.56 139.8 29.56ZM154.042 29.56C155.066 29.56 155.97 29.768 156.754 30.184C157.554 30.584 158.178 31.088 158.626 31.696V29.776H161.386V43.216C161.386 44.432 161.13 45.512 160.618 46.456C160.106 47.416 159.362 48.168 158.386 48.712C157.426 49.256 156.274 49.528 154.93 49.528C153.138 49.528 151.65 49.104 150.466 48.256C149.282 47.424 148.61 46.288 148.45 44.848H151.162C151.37 45.536 151.81 46.088 152.482 46.504C153.17 46.936 153.986 47.152 154.93 47.152C156.034 47.152 156.922 46.816 157.594 46.144C158.282 45.472 158.626 44.496 158.626 43.216V41.008C158.162 41.632 157.53 42.16 156.73 42.592C155.946 43.008 155.05 43.216 154.042 43.216C152.89 43.216 151.834 42.928 150.874 42.352C149.93 41.76 149.178 40.944 148.618 39.904C148.074 38.848 147.802 37.656 147.802 36.328C147.802 35 148.074 33.824 148.618 32.8C149.178 31.776 149.93 30.984 150.874 30.424C151.834 29.848 152.89 29.56 154.042 29.56ZM158.626 36.376C158.626 35.464 158.434 34.672 158.05 34C157.682 33.328 157.194 32.816 156.586 32.464C155.978 32.112 155.322 31.936 154.618 31.936C153.914 31.936 153.258 32.112 152.65 32.464C152.042 32.8 151.546 33.304 151.162 33.976C150.794 34.632 150.61 35.416 150.61 36.328C150.61 37.24 150.794 38.04 151.162 38.728C151.546 39.416 152.042 39.944 152.65 40.312C153.274 40.664 153.93 40.84 154.618 40.84C155.322 40.84 155.978 40.664 156.586 40.312C157.194 39.96 157.682 39.448 158.05 38.776C158.434 38.088 158.626 37.288 158.626 36.376ZM167.716 31.696C168.116 31.024 168.644 30.504 169.3 30.136C169.972 29.752 170.764 29.56 171.676 29.56V32.392H170.98C169.908 32.392 169.092 32.664 168.532 33.208C167.988 33.752 167.716 34.696 167.716 36.04V43H164.98V29.776H167.716V31.696ZM186.311 36.064C186.311 36.56 186.279 37.008 186.215 37.408H176.111C176.191 38.464 176.583 39.312 177.287 39.952C177.991 40.592 178.855 40.912 179.879 40.912C181.351 40.912 182.391 40.296 182.999 39.064H185.951C185.551 40.28 184.823 41.28 183.767 42.064C182.727 42.832 181.431 43.216 179.879 43.216C178.615 43.216 177.479 42.936 176.471 42.376C175.479 41.8 174.695 41 174.119 39.976C173.559 38.936 173.279 37.736 173.279 36.376C173.279 35.016 173.551 33.824 174.095 32.8C174.655 31.76 175.431 30.96 176.423 30.4C177.431 29.84 178.583 29.56 179.879 29.56C181.127 29.56 182.239 29.832 183.215 30.376C184.191 30.92 184.951 31.688 185.495 32.68C186.039 33.656 186.311 34.784 186.311 36.064ZM183.455 35.2C183.439 34.192 183.079 33.384 182.375 32.776C181.671 32.168 180.799 31.864 179.759 31.864C178.815 31.864 178.007 32.168 177.335 32.776C176.663 33.368 176.263 34.176 176.135 35.2H183.455ZM193.803 43.216C192.763 43.216 191.827 43.032 190.995 42.664C190.179 42.28 189.531 41.768 189.051 41.128C188.571 40.472 188.315 39.744 188.283 38.944H191.115C191.163 39.504 191.427 39.976 191.907 40.36C192.403 40.728 193.019 40.912 193.755 40.912C194.523 40.912 195.115 40.768 195.531 40.48C195.963 40.176 196.179 39.792 196.179 39.328C196.179 38.832 195.939 38.464 195.459 38.224C194.995 37.984 194.251 37.72 193.227 37.432C192.235 37.16 191.427 36.896 190.803 36.64C190.179 36.384 189.635 35.992 189.171 35.464C188.723 34.936 188.499 34.24 188.499 33.376C188.499 32.672 188.707 32.032 189.123 31.456C189.539 30.864 190.131 30.4 190.899 30.064C191.683 29.728 192.579 29.56 193.587 29.56C195.091 29.56 196.299 29.944 197.211 30.712C198.139 31.464 198.635 32.496 198.699 33.808H195.963C195.915 33.216 195.675 32.744 195.243 32.392C194.811 32.04 194.227 31.864 193.491 31.864C192.771 31.864 192.219 32 191.835 32.272C191.451 32.544 191.259 32.904 191.259 33.352C191.259 33.704 191.387 34 191.643 34.24C191.899 34.48 192.211 34.672 192.579 34.816C192.947 34.944 193.491 35.112 194.211 35.32C195.171 35.576 195.955 35.84 196.563 36.112C197.187 36.368 197.723 36.752 198.171 37.264C198.619 37.776 198.851 38.456 198.867 39.304C198.867 40.056 198.659 40.728 198.243 41.32C197.827 41.912 197.235 42.376 196.467 42.712C195.715 43.048 194.827 43.216 193.803 43.216ZM200.911 36.328C200.911 35 201.183 33.824 201.727 32.8C202.287 31.776 203.039 30.984 203.983 30.424C204.943 29.848 205.999 29.56 207.151 29.56C208.191 29.56 209.095 29.768 209.863 30.184C210.647 30.584 211.271 31.088 211.735 31.696V29.776H214.495V43H211.735V41.032C211.271 41.656 210.639 42.176 209.839 42.592C209.039 43.008 208.127 43.216 207.103 43.216C205.967 43.216 204.927 42.928 203.983 42.352C203.039 41.76 202.287 40.944 201.727 39.904C201.183 38.848 200.911 37.656 200.911 36.328ZM211.735 36.376C211.735 35.464 211.543 34.672 211.159 34C210.791 33.328 210.303 32.816 209.695 32.464C209.087 32.112 208.431 31.936 207.727 31.936C207.023 31.936 206.367 32.112 205.759 32.464C205.151 32.8 204.655 33.304 204.271 33.976C203.903 34.632 203.719 35.416 203.719 36.328C203.719 37.24 203.903 38.04 204.271 38.728C204.655 39.416 205.151 39.944 205.759 40.312C206.383 40.664 207.039 40.84 207.727 40.84C208.431 40.84 209.087 40.664 209.695 40.312C210.303 39.96 210.791 39.448 211.159 38.776C211.543 38.088 211.735 37.288 211.735 36.376ZM220.825 31.696C221.225 31.024 221.753 30.504 222.409 30.136C223.081 29.752 223.873 29.56 224.785 29.56V32.392H224.089C223.017 32.392 222.201 32.664 221.641 33.208C221.097 33.752 220.825 34.696 220.825 36.04V43H218.089V29.776H220.825V31.696Z" fill="#1E1E1E"/>
</svg>
