<svg width="119" height="38" viewBox="0 0 119 38" fill="none" xmlns="http://www.w3.org/2000/svg">
<rect width="119" height="38" rx="19" fill="white"/>
<path d="M38.0455 15C37.858 14.4261 37.6108 13.9119 37.304 13.4574C37.0028 12.9972 36.642 12.6051 36.2216 12.2812C35.8068 11.9574 35.3352 11.7102 34.8068 11.5398C34.2784 11.3693 33.6989 11.2841 33.0682 11.2841C32.0341 11.2841 31.0938 11.5511 30.2472 12.0852C29.4006 12.6193 28.7273 13.4062 28.2273 14.446C27.7273 15.4858 27.4773 16.7614 27.4773 18.2727C27.4773 19.7841 27.7301 21.0597 28.2358 22.0994C28.7415 23.1392 29.4261 23.9261 30.2898 24.4602C31.1534 24.9943 32.125 25.2614 33.2045 25.2614C34.2045 25.2614 35.0852 25.0483 35.8466 24.6222C36.6136 24.1903 37.2102 23.5824 37.6364 22.7983C38.0682 22.0085 38.2841 21.0795 38.2841 20.0114L38.9318 20.1477H33.6818V18.2727H40.3295V20.1477C40.3295 21.5852 40.0227 22.8352 39.4091 23.8977C38.8011 24.9602 37.9602 25.7841 36.8864 26.3693C35.8182 26.9489 34.5909 27.2386 33.2045 27.2386C31.6591 27.2386 30.3011 26.875 29.1307 26.1477C27.9659 25.4205 27.0568 24.3864 26.4034 23.0455C25.7557 21.7045 25.4318 20.1136 25.4318 18.2727C25.4318 16.892 25.6165 15.6506 25.9858 14.5483C26.3608 13.4403 26.8892 12.4972 27.571 11.7188C28.2528 10.9403 29.0597 10.3438 29.9915 9.92898C30.9233 9.5142 31.9489 9.30682 33.0682 9.30682C33.9886 9.30682 34.8466 9.44602 35.642 9.72443C36.4432 9.99716 37.1562 10.3864 37.7812 10.892C38.4119 11.392 38.9375 11.9915 39.358 12.6903C39.7784 13.3835 40.0682 14.1534 40.2273 15H38.0455ZM46.0632 9.54545V27H43.9496V9.54545H46.0632ZM50.3011 27V9.54545H56.1989C57.5625 9.54545 58.6818 9.77841 59.5568 10.2443C60.4318 10.7045 61.0795 11.3381 61.5 12.1449C61.9205 12.9517 62.1307 13.8693 62.1307 14.8977C62.1307 15.9261 61.9205 16.8381 61.5 17.6335C61.0795 18.429 60.4347 19.054 59.5653 19.5085C58.696 19.9574 57.5852 20.1818 56.233 20.1818H51.4602V18.2727H56.1648C57.0966 18.2727 57.8466 18.1364 58.4148 17.8636C58.9886 17.5909 59.4034 17.2045 59.6591 16.7045C59.9205 16.1989 60.0511 15.5966 60.0511 14.8977C60.0511 14.1989 59.9205 13.5881 59.6591 13.0653C59.3977 12.5426 58.9801 12.1392 58.4062 11.8551C57.8324 11.5653 57.0739 11.4205 56.1307 11.4205H52.4148V27H50.3011ZM58.517 19.1591L62.8125 27H60.358L56.1307 19.1591H58.517ZM66.3686 27H64.1527L70.5618 9.54545H72.7436L79.1527 27H76.9368L71.7209 12.3068H71.5845L66.3686 27ZM67.1868 20.1818H76.1186V22.0568H67.1868V20.1818ZM81.8714 27V9.54545H87.7692C89.1328 9.54545 90.2521 9.77841 91.1271 10.2443C92.0021 10.7045 92.6499 11.3381 93.0703 12.1449C93.4908 12.9517 93.701 13.8693 93.701 14.8977C93.701 15.9261 93.4908 16.8381 93.0703 17.6335C92.6499 18.429 92.005 19.054 91.1357 19.5085C90.2663 19.9574 89.1555 20.1818 87.8033 20.1818H83.0305V18.2727H87.7351C88.6669 18.2727 89.4169 18.1364 89.9851 17.8636C90.5589 17.5909 90.9737 17.2045 91.2294 16.7045C91.4908 16.1989 91.6214 15.5966 91.6214 14.8977C91.6214 14.1989 91.4908 13.5881 91.2294 13.0653C90.968 12.5426 90.5504 12.1392 89.9766 11.8551C89.4027 11.5653 88.6442 11.4205 87.701 11.4205H83.9851V27H81.8714ZM90.0874 19.1591L94.3828 27H91.9283L87.701 19.1591H90.0874Z" fill="black"/>
</svg>
