<svg width="335" height="445" viewBox="0 0 335 445" fill="none" xmlns="http://www.w3.org/2000/svg">
<rect x="170" y="340" width="80" height="80" rx="20" fill="#D9D9D9"/>
<rect y="340" width="80" height="80" rx="20" fill="#D9D9D9"/>
<rect x="85" y="340" width="80" height="80" rx="20" fill="#D9D9D9"/>
<rect opacity="0.8" x="255" y="340" width="80" height="80" rx="20" fill="url(#paint0_linear_15_61)"/>
<rect x="170" y="255" width="80" height="80" rx="20" fill="#D9D9D9"/>
<rect y="255" width="80" height="80" rx="20" fill="#D9D9D9"/>
<rect x="85" y="255" width="80" height="80" rx="20" fill="#D9D9D9"/>
<rect x="255" y="255" width="80" height="80" rx="20" fill="#D9D9D9"/>
<rect x="170" y="170" width="80" height="80" rx="20" fill="#D9D9D9"/>
<rect y="170" width="80" height="80" fill="#D9D9D9"/>
<rect x="85" y="170" width="80" height="80" rx="20" fill="#D9D9D9"/>
<rect x="255" y="170" width="80" height="80" rx="20" fill="#D9D9D9"/>
<rect x="170" y="85" width="80" height="80" rx="20" fill="#D9D9D9"/>
<rect y="85" width="80" height="80" rx="20" fill="#D9D9D9"/>
<rect x="85" y="85" width="80" height="80" rx="20" fill="#D9D9D9"/>
<rect x="255" y="85" width="80" height="80" rx="20" fill="#D9D9D9"/>
<rect x="170" width="80" height="80" rx="20" fill="#D9D9D9"/>
<rect opacity="0.8" width="80" height="80" rx="20" fill="#AF1010" fill-opacity="0.82"/>
<rect x="85" width="80" height="80" rx="20" fill="#D9D9D9"/>
<rect x="255" width="80" height="80" rx="20" fill="#D9D9D9"/>
<path d="M50.6222 35.3324H46.6335C46.4801 34.4801 46.1946 33.7301 45.777 33.0824C45.3594 32.4347 44.848 31.8849 44.2429 31.4332C43.6378 30.9815 42.9602 30.6406 42.2102 30.4105C41.4688 30.1804 40.6804 30.0653 39.8452 30.0653C38.3366 30.0653 36.9858 30.4446 35.7926 31.2031C34.608 31.9616 33.6705 33.0739 32.9801 34.5398C32.2983 36.0057 31.9574 37.7955 31.9574 39.9091C31.9574 42.0398 32.2983 43.8381 32.9801 45.304C33.6705 46.7699 34.6122 47.8778 35.8054 48.6278C36.9986 49.3778 38.3409 49.7528 39.8324 49.7528C40.6591 49.7528 41.4432 49.642 42.1847 49.4205C42.9347 49.1903 43.6122 48.8537 44.2173 48.4105C44.8224 47.9673 45.3338 47.4261 45.7514 46.7869C46.1776 46.1392 46.4716 45.3977 46.6335 44.5625L50.6222 44.5753C50.4091 45.8622 49.9957 47.0469 49.3821 48.1293C48.777 49.2031 47.9972 50.1321 47.0426 50.9162C46.0966 51.6918 45.0142 52.2926 43.7955 52.7188C42.5767 53.1449 41.2472 53.358 39.8068 53.358C37.5398 53.358 35.5199 52.821 33.7472 51.7472C31.9744 50.6648 30.5767 49.1179 29.554 47.1065C28.5398 45.0952 28.0327 42.696 28.0327 39.9091C28.0327 37.1136 28.544 34.7145 29.5668 32.7116C30.5895 30.7003 31.9872 29.1577 33.7599 28.0838C35.5327 27.0014 37.5483 26.4602 39.8068 26.4602C41.196 26.4602 42.4915 26.6605 43.6932 27.0611C44.9034 27.4531 45.9901 28.0327 46.9531 28.7997C47.9162 29.5582 48.7131 30.4872 49.3438 31.5866C49.9744 32.6776 50.4006 33.9261 50.6222 35.3324Z" fill="white"/>
<path d="M38.4517 108.818V135H34.4886V112.781H34.3352L28.071 116.872V113.088L34.6037 108.818H38.4517Z" fill="#2B2424"/>
<path d="M27.9688 217.886V214.69L39.2827 196.818H41.8011V201.523H40.2031L32.1108 214.332V214.537H47.6179V217.886H27.9688ZM40.3821 223V216.915L40.4077 215.457V196.818H44.1534V223H40.3821Z" fill="#383131"/>
<path d="M29.4006 308L40.8295 285.398V285.206H27.6108V281.818H44.9205V285.321L33.5298 308H29.4006Z" fill="#3D3636"/>
<path d="M42.5412 365.591L34.1037 396.938H30.6903L39.1278 365.591H42.5412Z" fill="black"/>
<path d="M116.503 44.1278V41.2642L133.48 33.0312V36.9304L120.952 42.6449L121.067 42.4148V42.9645L120.952 42.7472L133.48 48.4489V52.3608L116.503 44.1278Z" fill="#312F2F"/>
<path d="M115.518 135V132.136L124.378 122.957C125.324 121.96 126.104 121.087 126.717 120.337C127.339 119.578 127.804 118.858 128.111 118.176C128.418 117.494 128.571 116.77 128.571 116.003C128.571 115.134 128.366 114.384 127.957 113.753C127.548 113.114 126.99 112.624 126.283 112.283C125.575 111.933 124.778 111.759 123.892 111.759C122.955 111.759 122.136 111.95 121.438 112.334C120.739 112.717 120.202 113.259 119.827 113.957C119.452 114.656 119.264 115.474 119.264 116.412H115.493C115.493 114.818 115.859 113.425 116.592 112.232C117.325 111.038 118.331 110.114 119.609 109.457C120.888 108.793 122.341 108.46 123.969 108.46C125.614 108.46 127.063 108.788 128.315 109.445C129.577 110.092 130.561 110.979 131.268 112.104C131.976 113.22 132.33 114.482 132.33 115.888C132.33 116.859 132.146 117.81 131.78 118.739C131.422 119.668 130.795 120.703 129.901 121.845C129.006 122.979 127.761 124.355 126.168 125.974L120.964 131.42V131.612H132.751V135H115.518Z" fill="black"/>
<path d="M124.161 223.358C122.558 223.358 121.118 223.051 119.839 222.438C118.57 221.815 117.555 220.963 116.797 219.881C116.038 218.798 115.634 217.562 115.582 216.173H119.418C119.511 217.298 120.01 218.223 120.913 218.947C121.817 219.672 122.899 220.034 124.161 220.034C125.166 220.034 126.057 219.804 126.832 219.344C127.616 218.875 128.23 218.232 128.673 217.413C129.125 216.595 129.351 215.662 129.351 214.614C129.351 213.548 129.121 212.598 128.661 211.763C128.2 210.928 127.565 210.271 126.756 209.794C125.955 209.317 125.034 209.074 123.994 209.065C123.202 209.065 122.405 209.202 121.604 209.474C120.803 209.747 120.155 210.105 119.661 210.548L116.043 210.011L117.513 196.818H131.908V200.206H120.798L119.967 207.531H120.121C120.632 207.037 121.31 206.624 122.153 206.291C123.006 205.959 123.918 205.793 124.889 205.793C126.483 205.793 127.902 206.172 129.146 206.93C130.399 207.689 131.384 208.724 132.099 210.037C132.824 211.341 133.182 212.841 133.173 214.537C133.182 216.233 132.798 217.746 132.023 219.075C131.256 220.405 130.19 221.453 128.827 222.22C127.472 222.979 125.916 223.358 124.161 223.358Z" fill="#453737"/>
<path d="M124.365 308.358C122.533 308.358 120.913 308.043 119.507 307.412C118.109 306.781 117.014 305.912 116.222 304.804C115.429 303.696 115.037 302.435 115.045 301.02C115.037 299.912 115.263 298.893 115.723 297.964C116.192 297.027 116.827 296.247 117.628 295.625C118.429 294.994 119.324 294.594 120.312 294.423V294.27C119.009 293.955 117.964 293.256 117.18 292.173C116.396 291.091 116.009 289.847 116.017 288.44C116.009 287.102 116.362 285.909 117.078 284.861C117.803 283.804 118.795 282.973 120.057 282.368C121.318 281.763 122.754 281.46 124.365 281.46C125.959 281.46 127.382 281.767 128.635 282.381C129.896 282.986 130.889 283.817 131.614 284.874C132.338 285.922 132.705 287.111 132.713 288.44C132.705 289.847 132.304 291.091 131.511 292.173C130.719 293.256 129.688 293.955 128.418 294.27V294.423C129.398 294.594 130.28 294.994 131.064 295.625C131.857 296.247 132.487 297.027 132.956 297.964C133.433 298.893 133.676 299.912 133.685 301.02C133.676 302.435 133.276 303.696 132.483 304.804C131.69 305.912 130.591 306.781 129.185 307.412C127.787 308.043 126.18 308.358 124.365 308.358ZM124.365 305.124C125.447 305.124 126.385 304.945 127.178 304.587C127.97 304.22 128.584 303.713 129.018 303.065C129.453 302.409 129.675 301.642 129.683 300.764C129.675 299.852 129.436 299.047 128.967 298.348C128.507 297.649 127.881 297.099 127.088 296.699C126.295 296.298 125.388 296.098 124.365 296.098C123.334 296.098 122.418 296.298 121.616 296.699C120.815 297.099 120.185 297.649 119.724 298.348C119.264 299.047 119.038 299.852 119.047 300.764C119.038 301.642 119.247 302.409 119.673 303.065C120.108 303.713 120.726 304.22 121.527 304.587C122.328 304.945 123.274 305.124 124.365 305.124ZM124.365 292.94C125.234 292.94 126.006 292.766 126.679 292.416C127.352 292.067 127.881 291.581 128.264 290.959C128.656 290.337 128.857 289.608 128.865 288.773C128.857 287.955 128.661 287.239 128.277 286.625C127.902 286.011 127.378 285.538 126.705 285.206C126.031 284.865 125.251 284.695 124.365 284.695C123.462 284.695 122.669 284.865 121.987 285.206C121.314 285.538 120.79 286.011 120.415 286.625C120.04 287.239 119.857 287.955 119.865 288.773C119.857 289.608 120.044 290.337 120.428 290.959C120.811 291.581 121.339 292.067 122.013 292.416C122.695 292.766 123.479 292.94 124.365 292.94Z" fill="black"/>
<path d="M124.634 393.435C122.614 393.426 120.888 392.893 119.456 391.837C118.024 390.78 116.929 389.241 116.17 387.222C115.412 385.202 115.033 382.768 115.033 379.922C115.033 377.084 115.412 374.659 116.17 372.648C116.938 370.636 118.037 369.102 119.469 368.045C120.909 366.989 122.631 366.46 124.634 366.46C126.636 366.46 128.354 366.993 129.786 368.058C131.217 369.115 132.313 370.649 133.071 372.661C133.838 374.663 134.222 377.084 134.222 379.922C134.222 382.777 133.842 385.214 133.084 387.234C132.325 389.246 131.23 390.784 129.798 391.849C128.366 392.906 126.645 393.435 124.634 393.435ZM124.634 390.021C126.406 390.021 127.791 389.156 128.788 387.426C129.794 385.696 130.297 383.195 130.297 379.922C130.297 377.749 130.067 375.912 129.607 374.412C129.155 372.903 128.503 371.761 127.651 370.986C126.807 370.202 125.801 369.81 124.634 369.81C122.869 369.81 121.484 370.679 120.479 372.418C119.473 374.156 118.966 376.658 118.957 379.922C118.957 382.104 119.183 383.949 119.635 385.457C120.095 386.957 120.747 388.095 121.591 388.871C122.435 389.638 123.449 390.021 124.634 390.021Z" fill="black"/>
<path d="M208.092 29.2599H209.013V30.5767H208.092V29.2599ZM201.355 38.6818L206.661 27.5597H210.445L215.75 38.6818H212.362L208.412 30.0653H208.693L204.781 38.6818H201.355Z" fill="#312F2F"/>
<path d="M208.634 135.358C206.878 135.358 205.31 135.055 203.929 134.45C202.557 133.845 201.47 133.006 200.669 131.932C199.876 130.849 199.45 129.597 199.391 128.173H203.405C203.456 128.949 203.716 129.622 204.185 130.193C204.662 130.756 205.284 131.19 206.051 131.497C206.818 131.804 207.67 131.957 208.608 131.957C209.639 131.957 210.551 131.778 211.344 131.42C212.145 131.062 212.771 130.564 213.223 129.925C213.675 129.277 213.901 128.531 213.901 127.688C213.901 126.81 213.675 126.038 213.223 125.374C212.78 124.7 212.128 124.172 211.267 123.788C210.415 123.405 209.384 123.213 208.173 123.213H205.962V119.991H208.173C209.145 119.991 209.997 119.817 210.73 119.467C211.472 119.118 212.051 118.632 212.469 118.01C212.886 117.379 213.095 116.642 213.095 115.798C213.095 114.989 212.912 114.286 212.545 113.689C212.188 113.084 211.676 112.611 211.011 112.27C210.355 111.929 209.58 111.759 208.685 111.759C207.832 111.759 207.036 111.916 206.294 112.232C205.561 112.538 204.964 112.982 204.504 113.561C204.044 114.132 203.797 114.818 203.763 115.619H199.94C199.983 114.205 200.401 112.96 201.193 111.886C201.994 110.812 203.051 109.973 204.364 109.368C205.676 108.763 207.134 108.46 208.736 108.46C210.415 108.46 211.864 108.788 213.082 109.445C214.31 110.092 215.256 110.957 215.92 112.04C216.594 113.122 216.926 114.307 216.918 115.594C216.926 117.06 216.517 118.304 215.69 119.327C214.872 120.349 213.781 121.036 212.418 121.385V121.589C214.156 121.854 215.503 122.544 216.457 123.661C217.42 124.777 217.898 126.162 217.889 127.815C217.898 129.256 217.497 130.547 216.688 131.689C215.886 132.831 214.791 133.73 213.402 134.386C212.013 135.034 210.423 135.358 208.634 135.358Z" fill="#312F2F"/>
<path d="M208.659 223.358C207.491 223.341 206.341 223.128 205.207 222.719C204.082 222.31 203.06 221.628 202.139 220.673C201.219 219.719 200.482 218.436 199.928 216.825C199.382 215.214 199.109 213.203 199.109 210.791C199.109 208.507 199.335 206.479 199.787 204.706C200.247 202.933 200.908 201.438 201.768 200.219C202.629 198.991 203.669 198.058 204.888 197.419C206.107 196.78 207.474 196.46 208.991 196.46C210.551 196.46 211.936 196.767 213.146 197.381C214.357 197.994 215.337 198.842 216.087 199.925C216.845 201.007 217.327 202.239 217.531 203.619H213.632C213.368 202.528 212.844 201.638 212.06 200.947C211.276 200.257 210.253 199.912 208.991 199.912C207.074 199.912 205.578 200.747 204.504 202.418C203.439 204.088 202.902 206.411 202.893 209.385H203.085C203.537 208.643 204.091 208.013 204.747 207.493C205.412 206.964 206.153 206.56 206.972 206.278C207.798 205.989 208.668 205.844 209.58 205.844C211.097 205.844 212.469 206.214 213.696 206.956C214.932 207.689 215.916 208.703 216.649 209.999C217.382 211.294 217.749 212.777 217.749 214.447C217.749 216.118 217.369 217.631 216.611 218.986C215.861 220.341 214.804 221.415 213.44 222.207C212.077 222.991 210.483 223.375 208.659 223.358ZM208.646 220.034C209.652 220.034 210.551 219.787 211.344 219.293C212.136 218.798 212.763 218.134 213.223 217.298C213.683 216.463 213.913 215.53 213.913 214.499C213.913 213.493 213.688 212.577 213.236 211.75C212.793 210.923 212.179 210.267 211.395 209.781C210.619 209.295 209.733 209.053 208.736 209.053C207.977 209.053 207.274 209.197 206.626 209.487C205.987 209.777 205.425 210.178 204.939 210.689C204.453 211.2 204.07 211.788 203.788 212.453C203.516 213.109 203.379 213.804 203.379 214.537C203.379 215.517 203.605 216.425 204.057 217.26C204.517 218.095 205.143 218.768 205.936 219.28C206.737 219.783 207.641 220.034 208.646 220.034Z" fill="#4A4545"/>
<path d="M208.224 281.46C209.392 281.469 210.543 281.682 211.676 282.099C212.81 282.517 213.832 283.199 214.744 284.145C215.665 285.091 216.398 286.369 216.943 287.98C217.497 289.582 217.778 291.577 217.787 293.963C217.787 296.256 217.557 298.297 217.097 300.087C216.636 301.868 215.976 303.372 215.115 304.599C214.263 305.827 213.227 306.76 212.009 307.399C210.79 308.038 209.418 308.358 207.892 308.358C206.332 308.358 204.947 308.051 203.737 307.438C202.527 306.824 201.543 305.976 200.784 304.893C200.026 303.803 199.553 302.55 199.365 301.135H203.264C203.52 302.26 204.04 303.172 204.824 303.871C205.616 304.561 206.639 304.906 207.892 304.906C209.81 304.906 211.305 304.071 212.379 302.401C213.453 300.722 213.994 298.378 214.003 295.369H213.798C213.355 296.102 212.801 296.733 212.136 297.261C211.48 297.79 210.743 298.199 209.925 298.489C209.107 298.778 208.233 298.923 207.304 298.923C205.795 298.923 204.423 298.553 203.188 297.811C201.952 297.07 200.967 296.051 200.234 294.756C199.501 293.46 199.135 291.982 199.135 290.32C199.135 288.666 199.51 287.166 200.26 285.82C201.018 284.473 202.075 283.408 203.43 282.624C204.794 281.831 206.392 281.443 208.224 281.46ZM208.237 284.784C207.24 284.784 206.341 285.031 205.54 285.526C204.747 286.011 204.121 286.672 203.661 287.507C203.2 288.334 202.97 289.254 202.97 290.268C202.97 291.283 203.192 292.203 203.635 293.03C204.087 293.848 204.7 294.5 205.476 294.986C206.26 295.463 207.155 295.702 208.161 295.702C208.911 295.702 209.609 295.557 210.257 295.267C210.905 294.977 211.472 294.577 211.957 294.065C212.443 293.545 212.822 292.957 213.095 292.301C213.368 291.645 213.504 290.955 213.504 290.23C213.504 289.267 213.274 288.372 212.814 287.545C212.362 286.719 211.74 286.054 210.947 285.551C210.155 285.04 209.251 284.784 208.237 284.784Z" fill="#312F2F"/>
<path d="M210.088 393.243C209.389 393.243 208.788 392.996 208.286 392.501C207.783 391.999 207.531 391.393 207.531 390.686C207.531 389.987 207.783 389.391 208.286 388.896C208.788 388.393 209.389 388.142 210.088 388.142C210.787 388.142 211.388 388.393 211.891 388.896C212.393 389.391 212.645 389.987 212.645 390.686C212.645 391.155 212.526 391.585 212.287 391.977C212.057 392.361 211.75 392.668 211.366 392.898C210.983 393.128 210.557 393.243 210.088 393.243Z" fill="black"/>
<path d="M300.185 48.0909V46.7102C300.185 45.7216 300.389 44.8182 300.798 44C301.216 43.1733 301.821 42.5128 302.614 42.0185C303.415 41.5156 304.382 41.2642 305.516 41.2642C306.675 41.2642 307.646 41.5114 308.43 42.0057C309.214 42.5 309.807 43.1605 310.207 43.9872C310.616 44.8139 310.821 45.7216 310.821 46.7102V48.0909C310.821 49.0795 310.616 49.9872 310.207 50.8139C309.798 51.6321 309.197 52.2926 308.405 52.7955C307.621 53.2898 306.658 53.5369 305.516 53.5369C304.365 53.5369 303.393 53.2898 302.601 52.7955C301.808 52.2926 301.207 51.6321 300.798 50.8139C300.389 49.9872 300.185 49.0795 300.185 48.0909ZM303.163 46.7102V48.0909C303.163 48.8239 303.338 49.4886 303.688 50.0852C304.037 50.6818 304.646 50.9801 305.516 50.9801C306.376 50.9801 306.977 50.6818 307.318 50.0852C307.659 49.4886 307.83 48.8239 307.83 48.0909V46.7102C307.83 45.9773 307.663 45.3125 307.331 44.7159C307.007 44.1193 306.402 43.821 305.516 43.821C304.663 43.821 304.058 44.1193 303.7 44.7159C303.342 45.3125 303.163 45.9773 303.163 46.7102ZM287.017 33.108V31.7273C287.017 30.7386 287.222 29.831 287.631 29.0043C288.048 28.1776 288.653 27.517 289.446 27.0227C290.247 26.5284 291.214 26.2812 292.348 26.2812C293.507 26.2812 294.479 26.5284 295.263 27.0227C296.047 27.517 296.639 28.1776 297.04 29.0043C297.44 29.831 297.641 30.7386 297.641 31.7273V33.108C297.641 34.0966 297.436 35.0043 297.027 35.831C296.626 36.6491 296.03 37.3097 295.237 37.8125C294.453 38.3068 293.49 38.554 292.348 38.554C291.189 38.554 290.213 38.3068 289.42 37.8125C288.636 37.3097 288.04 36.6491 287.631 35.831C287.222 35.0043 287.017 34.0966 287.017 33.108ZM290.009 31.7273V33.108C290.009 33.8409 290.179 34.5057 290.52 35.1023C290.869 35.6989 291.479 35.9972 292.348 35.9972C293.2 35.9972 293.797 35.6989 294.138 35.1023C294.487 34.5057 294.662 33.8409 294.662 33.108V31.7273C294.662 30.9943 294.496 30.3295 294.163 29.733C293.831 29.1364 293.226 28.8381 292.348 28.8381C291.496 28.8381 290.891 29.1364 290.533 29.733C290.183 30.3295 290.009 30.9943 290.009 31.7273ZM288.232 53L306.232 26.8182H309.287L291.287 53H288.232Z" fill="black"/>
<path d="M289.625 108.818L295.889 119.058H296.094L302.358 108.818H306.935L298.778 121.909L306.986 135H302.384L296.094 124.901H295.889L289.599 135H284.997L293.345 121.909L285.048 108.818H289.625Z" fill="#382E2E"/>
<path d="M299.139 210.28V213.591H287.531V210.28H299.139Z" fill="#554F4F"/>
<path d="M293.266 306.338V289.054H296.705V306.338H293.266ZM286.349 299.409V295.97H303.634V299.409H286.349Z" fill="black"/>
<defs>
<linearGradient id="paint0_linear_15_61" x1="295" y1="340" x2="295" y2="420" gradientUnits="userSpaceOnUse">
<stop stop-color="#B13D3D"/>
<stop offset="1" stop-color="#4B1A1A"/>
</linearGradient>
</defs>
</svg>
